<svg width="41" height="43" xmlns="http://www.w3.org/2000/svg" xmlns:xlink="http://www.w3.org/1999/xlink" xml:space="preserve" overflow="hidden"><defs><clipPath id="clip0"><rect x="708" y="130" width="41" height="43"/></clipPath><clipPath id="clip1"><rect x="709" y="131" width="40" height="42"/></clipPath><clipPath id="clip2"><rect x="709" y="131" width="40" height="42"/></clipPath><clipPath id="clip3"><rect x="709" y="131" width="40" height="42"/></clipPath></defs><g clip-path="url(#clip0)" transform="translate(-708 -130)"><g clip-path="url(#clip1)"><g clip-path="url(#clip2)"><g clip-path="url(#clip3)"><path d="M33.7705 39.6723 2.29508 39.6723C1.18033 39.6723 0.327869 38.8197 0.327869 37.7049L0.327869 2.29508C0.327869 1.18033 1.18033 0.327869 2.29508 0.327869L33.7705 0.327869C34.8852 0.327869 35.7377 1.18033 35.7377 2.29508L35.7377 37.7049C35.7377 38.8197 34.8852 39.6723 33.7705 39.6723Z" fill="#455A64" fill-rule="nonzero" fill-opacity="1" transform="matrix(1 0 0 1.05 709 131)"/><path d="M33.7705 0.327869 2.29508 0.327869C1.18033 0.327869 0.327869 1.18033 0.327869 2.29508L0.327869 6.88523 35.7377 6.88523 35.7377 2.29508C35.7377 1.18033 34.8852 0.327869 33.7705 0.327869Z" fill="#B0BEC5" fill-rule="nonzero" fill-opacity="1" transform="matrix(1 0 0 1.05 709 131)"/><path d="M37.7049 39.6723 6.22949 39.6723C5.11477 39.6723 4.2623 38.8197 4.2623 37.7049L4.2623 2.29508C4.2623 1.18033 5.11477 0.327869 6.22949 0.327869L37.7049 0.327869C38.8197 0.327869 39.6723 1.18033 39.6723 2.29508L39.6723 37.7049C39.6723 38.8197 38.8197 39.6723 37.7049 39.6723Z" fill="#546E7A" fill-rule="nonzero" fill-opacity="1" transform="matrix(1 0 0 1.05 709 131)"/><path d="M37.7049 0.327869 6.22949 0.327869C5.11477 0.327869 4.2623 1.18033 4.2623 2.29508L4.2623 6.88523 39.6723 6.88523 39.6723 2.29508C39.6723 1.18033 38.8197 0.327869 37.7049 0.327869Z" fill="#CFD8DC" fill-rule="nonzero" fill-opacity="1" transform="matrix(1 0 0 1.05 709 131)"/><path d="M9.83605 5.2459 7.86887 5.2459C7.47539 5.2459 7.21313 4.98359 7.21313 4.59016L7.21313 2.62295C7.21313 2.22951 7.47539 1.96721 7.86887 1.96721L9.83605 1.96721C10.2295 1.96721 10.4918 2.22951 10.4918 2.62295L10.4918 4.59016C10.4918 4.98359 10.2295 5.2459 9.83605 5.2459ZM16.3934 5.2459 14.4262 5.2459C14.0328 5.2459 13.7705 4.98359 13.7705 4.59016L13.7705 2.62295C13.7705 2.22951 14.0328 1.96721 14.4262 1.96721L16.3934 1.96721C16.7869 1.96721 17.0492 2.22951 17.0492 2.62295L17.0492 4.59016C17.0492 4.98359 16.7869 5.2459 16.3934 5.2459ZM22.9508 5.2459 20.9836 5.2459C20.5902 5.2459 20.3279 4.98359 20.3279 4.59016L20.3279 2.62295C20.3279 2.22951 20.5902 1.96721 20.9836 1.96721L22.9508 1.96721C23.3443 1.96721 23.6066 2.22951 23.6066 2.62295L23.6066 4.59016C23.6066 4.98359 23.3443 5.2459 22.9508 5.2459ZM29.5082 5.2459 27.541 5.2459C27.1475 5.2459 26.8852 4.98359 26.8852 4.59016L26.8852 2.62295C26.8852 2.22951 27.1475 1.96721 27.541 1.96721L29.5082 1.96721C29.9016 1.96721 30.1639 2.22951 30.1639 2.62295L30.1639 4.59016C30.1639 4.98359 29.9016 5.2459 29.5082 5.2459ZM36.0656 5.2459 34.0984 5.2459C33.7049 5.2459 33.4426 4.98359 33.4426 4.59016L33.4426 2.62295C33.4426 2.22951 33.7049 1.96721 34.0984 1.96721L36.0656 1.96721C36.459 1.96721 36.7213 2.22951 36.7213 2.62295L36.7213 4.59016C36.7213 4.98359 36.459 5.2459 36.0656 5.2459Z" fill="#455A64" fill-rule="nonzero" fill-opacity="1" transform="matrix(1 0 0 1.05 709 131)"/><path d="M7.54098 31.8033 10.8197 31.8033 10.8197 39.6723 7.54098 39.6723ZM10.8197 31.8033 14.0984 31.8033 14.0984 39.6723 10.8197 39.6723Z" fill="#CFD8DC" fill-rule="nonzero" fill-opacity="1" transform="matrix(1 0 0 1.05 709 131)"/><path d="M9.5082 31.8033 12.1311 31.8033 12.1311 35.7377 9.5082 35.7377Z" fill="#455A64" fill-rule="nonzero" fill-opacity="1" transform="matrix(1 0 0 1.05 709 131)"/><path d="M14.0984 31.8033 17.377 31.8033 17.377 39.6723 14.0984 39.6723ZM17.377 31.8033 20.6557 31.8033 20.6557 39.6723 17.377 39.6723Z" fill="#CFD8DC" fill-rule="nonzero" fill-opacity="1" transform="matrix(1 0 0 1.05 709 131)"/><path d="M16.0656 31.8033 18.6885 31.8033 18.6885 35.7377 16.0656 35.7377Z" fill="#455A64" fill-rule="nonzero" fill-opacity="1" transform="matrix(1 0 0 1.05 709 131)"/><path d="M23.2787 31.8033 26.5574 31.8033 26.5574 39.6723 23.2787 39.6723ZM26.5574 31.8033 29.8361 31.8033 29.8361 39.6723 26.5574 39.6723Z" fill="#CFD8DC" fill-rule="nonzero" fill-opacity="1" transform="matrix(1 0 0 1.05 709 131)"/><path d="M25.2459 31.8033 27.8689 31.8033 27.8689 35.7377 25.2459 35.7377Z" fill="#455A64" fill-rule="nonzero" fill-opacity="1" transform="matrix(1 0 0 1.05 709 131)"/><path d="M29.8361 31.8033 33.1148 31.8033 33.1148 39.6723 29.8361 39.6723ZM33.1148 31.8033 36.3934 31.8033 36.3934 39.6723 33.1148 39.6723Z" fill="#CFD8DC" fill-rule="nonzero" fill-opacity="1" transform="matrix(1 0 0 1.05 709 131)"/><path d="M31.8033 31.8033 34.4262 31.8033 34.4262 35.7377 31.8033 35.7377Z" fill="#455A64" fill-rule="nonzero" fill-opacity="1" transform="matrix(1 0 0 1.05 709 131)"/><path d="M7.54098 6.88523 36.3934 6.88523 36.3934 24.5902 7.54098 24.5902Z" fill="#26C6DA" fill-rule="nonzero" fill-opacity="1" transform="matrix(1 0 0 1.05 709 131)"/><path d="M33.7705 28.1967C33.7705 28.921 34.3577 29.5082 35.082 29.5082 35.8063 29.5082 36.3934 28.921 36.3934 28.1967 36.3934 27.4724 35.8063 26.8852 35.082 26.8852 34.3577 26.8852 33.7705 27.4724 33.7705 28.1967Z" fill="#26C6DA" fill-rule="nonzero" fill-opacity="1" transform="matrix(1 0 0 1.05 709 131)"/><path d="M28.5246 28.1967C28.5246 28.921 29.1118 29.5082 29.8361 29.5082 30.5604 29.5082 31.1475 28.921 31.1475 28.1967 31.1475 27.4724 30.5604 26.8852 29.8361 26.8852 29.1118 26.8852 28.5246 27.4724 28.5246 28.1967Z" fill="#26C6DA" fill-rule="nonzero" fill-opacity="1" transform="matrix(1 0 0 1.05 709 131)"/><path d="M29.0492 11.1475C28.7869 10.8852 28.3934 10.7541 28 10.8197L18.1639 12.1311C17.5082 12.1967 17.0492 12.7869 17.0492 13.4426L17.0492 22.4262C16.6557 22.3607 16.1967 22.2951 15.7377 22.2951 13.5738 22.2951 11.8033 23.1475 11.8033 24.2623 11.8033 25.377 13.5738 26.2295 15.7377 26.2295 17.9016 26.2295 19.6721 25.377 19.6721 24.2623L19.6721 14.623 26.8852 13.6393 26.8852 20.7869C26.4918 20.7213 26.0328 20.6557 25.5738 20.6557 23.4098 20.6557 21.6393 21.5082 21.6393 22.623 21.6393 23.7377 23.4098 24.5902 25.5738 24.5902 27.7377 24.5902 29.5082 23.7377 29.5082 22.623L29.5082 12.1311C29.5082 11.7377 29.377 11.4098 29.0492 11.1475Z" fill="#CFD8DC" fill-rule="nonzero" fill-opacity="1" transform="matrix(1 0 0 1.05 709 131)"/></g></g></g></g></svg>