<svg width="62" height="61" xmlns="http://www.w3.org/2000/svg" xmlns:xlink="http://www.w3.org/1999/xlink" xml:space="preserve" overflow="hidden"><defs><clipPath id="clip0"><rect x="402" y="508" width="62" height="61"/></clipPath><clipPath id="clip1"><rect x="403" y="508" width="60" height="61"/></clipPath><clipPath id="clip2"><rect x="403" y="508" width="60" height="61"/></clipPath><clipPath id="clip3"><rect x="403" y="508" width="60" height="61"/></clipPath></defs><g clip-path="url(#clip0)" transform="translate(-402 -508)"><g clip-path="url(#clip1)"><g clip-path="url(#clip2)"><g clip-path="url(#clip3)"><path d="M44.6542 6.91852 37.3805 19.0953" fill="#49DAF2" fill-rule="nonzero" fill-opacity="1" transform="matrix(1 0 0 1.01667 403 508)"/><path d="M37.3805 20.0338C37.2187 20.0338 37.0488 19.9934 36.9032 19.9044 36.4581 19.6374 36.3125 19.063 36.5796 18.6179L43.8613 6.43307C44.1283 5.98811 44.7028 5.84245 45.1478 6.10945 45.5927 6.37646 45.7384 6.95092 45.4714 7.39588L38.1896 19.5807C38.0036 19.872 37.6961 20.0338 37.3805 20.0338Z" fill="#4C466D" fill-rule="nonzero" fill-opacity="1" transform="matrix(1 0 0 1.01667 403 508)"/><path d="M43.1493 17.3962C43.7561 16.3768 43.4244 15.0499 42.4049 14.4431L39.0958 12.4689C38.0763 11.8621 36.7494 12.1938 36.1426 13.2132L43.1493 17.3962Z" fill="#49DAF2" fill-rule="nonzero" fill-opacity="1" transform="matrix(1 0 0 1.01667 403 508)"/><path d="M38.0036 12.1614C38.3757 12.1614 38.756 12.2585 39.1039 12.4689L42.413 14.4431C43.4325 15.0499 43.7642 16.3849 43.1574 17.3962L36.1426 13.2052C36.5471 12.5336 37.2673 12.1614 38.0036 12.1614M38.0036 10.2843C36.5876 10.2843 35.2607 11.0368 34.5406 12.2423 34.0066 13.1323 34.2979 14.2812 35.1879 14.8152L42.1946 19.0063C42.4859 19.1843 42.8176 19.2733 43.1574 19.2733 43.3112 19.2733 43.4648 19.2571 43.6186 19.2166 44.104 19.0953 44.5167 18.7879 44.7675 18.359 45.9083 16.4496 45.2853 13.9738 43.3758 12.833L40.0667 10.8588C39.4356 10.4785 38.7236 10.2843 38.0036 10.2843Z" fill="#4C466D" fill-rule="nonzero" fill-opacity="1" transform="matrix(1 0 0 1.01667 403 508)"/><path d="M40.6169 8.23734 45.2449 10.9963" fill="#49DAF2" fill-rule="nonzero" fill-opacity="1" transform="matrix(1 0 0 1.01667 403 508)"/><path d="M45.2449 11.9348C45.083 11.9348 44.9131 11.8944 44.7675 11.8054L40.1476 9.04641C39.7026 8.77945 39.557 8.205 39.8239 7.75998 40.091 7.31496 40.6654 7.16936 41.1104 7.43637L45.7303 10.1953C46.1753 10.4623 46.3209 11.0368 46.0539 11.4818 45.8759 11.7731 45.5604 11.9348 45.2449 11.9348Z" fill="#4C466D" fill-rule="nonzero" fill-opacity="1" transform="matrix(1 0 0 1.01667 403 508)"/><path d="M11.5212 15.8089 23.9268 23.2204 20.8933 28.2979 8.48771 20.8864Z" fill="#49DAF2" fill-rule="nonzero" fill-opacity="1" transform="matrix(1 0 0 1.01667 403 508)"/><path d="M11.5221 15.8104 23.9254 23.2216 20.8914 28.2946 8.48807 20.8833 11.5221 15.8104M11.5221 13.9333C11.3684 13.9333 11.2147 13.9495 11.0609 13.99 10.5755 14.1113 10.1629 14.4187 9.91207 14.8476L6.87797 19.9205C6.34395 20.8106 6.63521 21.9595 7.52525 22.4934L19.9286 29.9047C20.2198 30.0827 20.5515 30.1717 20.8914 30.1717 21.0451 30.1717 21.1988 30.1555 21.3525 30.115 21.8379 29.9937 22.2506 29.6862 22.5014 29.2574L25.5355 24.1845C26.0695 23.2945 25.7782 22.1456 24.8882 21.6115L12.4849 14.2003C12.1937 14.0223 11.8539 13.9333 11.5221 13.9333Z" fill="#4C466D" fill-rule="nonzero" fill-opacity="1" transform="matrix(1 0 0 1.01667 403 508)"/><path d="M22.4933 44.0071C19.6696 42.3161 18.7311 38.6186 20.4221 35.7948L29.5243 20.5678C31.2153 17.7441 34.9128 16.8056 37.7365 18.4966 40.5602 20.1875 41.4988 23.8851 39.8078 26.7088L30.7137 41.9358C29.0227 44.7676 25.3252 45.698 22.4933 44.0071Z" fill="#38C9F1" fill-rule="nonzero" fill-opacity="1" transform="matrix(1 0 0 1.01667 403 508)"/><path d="M34.6863 17.6551C35.73 17.6551 36.7818 17.9302 37.7446 18.4966 40.5683 20.1875 41.5069 23.8851 39.8159 26.7088L30.7137 41.9358C29.5971 43.8048 27.5987 44.8485 25.5517 44.8485 24.5079 44.8485 23.4561 44.5734 22.4933 44.0071 19.6696 42.3161 18.7311 38.6186 20.4221 35.7948L29.5243 20.5678C30.6408 18.6908 32.6393 17.6551 34.6863 17.6551M34.6863 15.778C31.9192 15.778 29.3301 17.2425 27.9223 19.605L18.8201 34.832C16.5951 38.5538 17.8168 43.3921 21.5386 45.6171 22.7522 46.3453 24.1438 46.7256 25.5517 46.7256 28.3188 46.7256 30.9079 45.2612 32.3156 42.8986L41.4179 27.6716C42.4939 25.8754 42.8014 23.7637 42.2836 21.7167 41.7658 19.6778 40.4955 17.9626 38.6994 16.8865 37.4857 16.1583 36.0941 15.778 34.6863 15.778Z" fill="#4C466D" fill-rule="nonzero" fill-opacity="1" transform="matrix(1 0 0 1.01667 403 508)"/><path d="M9.45088 18.0111 25.9967 27.8981" fill="#49DAF2" fill-rule="nonzero" fill-opacity="1" transform="matrix(1 0 0 1.01667 403 508)"/><path d="M8.96572 18.8203 9.92848 17.209 26.4718 27.0938 25.5092 28.7051Z" fill="#4C466D" fill-rule="nonzero" fill-opacity="1" transform="matrix(1 0 0 1.01667 403 508)"/><path d="M15.7617 17.3477 11.8862 23.8446" fill="#49DAF2" fill-rule="nonzero" fill-opacity="1" transform="matrix(1 0 0 1.01667 403 508)"/><path d="M11.0766 23.3589 14.9559 16.8643 16.5673 17.8269 12.6881 24.3214Z" fill="#4C466D" fill-rule="nonzero" fill-opacity="1" transform="matrix(1 0 0 1.01667 403 508)"/><path d="M20.4787 20.1633 16.6032 26.6602" fill="#49DAF2" fill-rule="nonzero" fill-opacity="1" transform="matrix(1 0 0 1.01667 403 508)"/><path d="M15.7982 26.1806 19.6775 19.6861 21.2889 20.6487 17.4096 27.1432Z" fill="#4C466D" fill-rule="nonzero" fill-opacity="1" transform="matrix(1 0 0 1.01667 403 508)"/><path d="M49.309 45.2724 36.9034 37.8608 39.9369 32.7833 52.3425 40.1949Z" fill="#49DAF2" fill-rule="nonzero" fill-opacity="1" transform="matrix(1 0 0 1.01667 403 508)"/><path d="M39.9373 32.785 52.3405 40.1963 49.3065 45.2692 36.9032 37.858 39.9373 32.785M39.9373 30.908C39.7835 30.908 39.6298 30.9241 39.4761 30.9646 38.9906 31.0859 38.5779 31.3934 38.3272 31.8222L35.2931 36.8952C34.7591 37.7852 35.0504 38.9341 35.9404 39.4681L48.3437 46.8793C48.6349 47.0573 48.9666 47.1463 49.3065 47.1463 49.4602 47.1463 49.6139 47.1301 49.7677 47.0897 50.2531 46.9683 50.6657 46.6608 50.9166 46.232L53.9506 41.1591C54.4846 40.2691 54.1934 39.1202 53.3033 38.5862L40.9001 31.1749C40.6088 30.997 40.2771 30.908 39.9373 30.908Z" fill="#4C466D" fill-rule="nonzero" fill-opacity="1" transform="matrix(1 0 0 1.01667 403 508)"/><path d="M51.3858 43.0685 34.84 33.1815" fill="#49DAF2" fill-rule="nonzero" fill-opacity="1" transform="matrix(1 0 0 1.01667 403 508)"/><path d="M34.355 33.9929 35.3179 32.3816 51.8612 42.2664 50.8984 43.8777Z" fill="#4C466D" fill-rule="nonzero" fill-opacity="1" transform="matrix(1 0 0 1.01667 403 508)"/><path d="M48.9748 37.1865 45.0992 43.6834" fill="#49DAF2" fill-rule="nonzero" fill-opacity="1" transform="matrix(1 0 0 1.01667 403 508)"/><path d="M44.2916 43.2006 48.1709 36.706 49.7824 37.6686 45.903 44.1631Z" fill="#4C466D" fill-rule="nonzero" fill-opacity="1" transform="matrix(1 0 0 1.01667 403 508)"/><path d="M44.2577 34.3709 40.3822 40.8678" fill="#49DAF2" fill-rule="nonzero" fill-opacity="1" transform="matrix(1 0 0 1.01667 403 508)"/><path d="M39.5702 40.3789 43.4494 33.8844 45.0609 34.8471 41.1816 41.3416Z" fill="#4C466D" fill-rule="nonzero" fill-opacity="1" transform="matrix(1 0 0 1.01667 403 508)"/><path d="M38.2058 18.804C38.222 18.8202 38.2382 18.8283 38.2624 18.8445 38.2382 18.8364 38.222 18.8202 38.2058 18.804ZM21.4334 39.7917 33.5212 19.5565C34.3869 18.1082 36.2883 17.6309 37.7365 18.4966 34.9128 16.8056 31.2153 17.736 29.5243 20.5678L20.4302 35.7948C18.7392 38.6186 19.6696 42.3161 22.5014 44.0071 21.0451 43.1413 20.5677 41.24 21.4334 39.7917ZM22.995 44.2659C23.0112 44.2741 23.0354 44.2822 23.0516 44.2983 23.0273 44.2903 23.0112 44.2822 22.995 44.2659Z" fill="#49BCEA" fill-rule="nonzero" fill-opacity="1" transform="matrix(1 0 0 1.01667 403 508)"/><path d="M37.243 18.2296C37.2268 18.2215 37.2025 18.2134 37.1863 18.1972 37.2025 18.2134 37.2187 18.2215 37.243 18.2296ZM26.7087 42.9472 38.7964 22.7119C39.6622 21.2636 39.1848 19.3623 37.7365 18.4966 40.5602 20.1875 41.4988 23.8851 39.8078 26.7088L30.7137 41.9358C29.0227 44.7595 25.3252 45.698 22.5014 44.0071 23.9497 44.8728 25.8429 44.3954 26.7087 42.9472ZM22.0322 43.6915C22.016 43.6753 21.9998 43.6672 21.9755 43.6511 21.9917 43.6672 22.0079 43.6834 22.0322 43.6915Z" fill="#49DAF2" fill-rule="nonzero" fill-opacity="1" transform="matrix(1 0 0 1.01667 403 508)"/><path d="M19.7586 33.9178 32.5665 41.5717" fill="#49DAF2" fill-rule="nonzero" fill-opacity="1" transform="matrix(1 0 0 1.01667 403 508)"/><path d="M19.2837 34.7204 20.2465 33.1088 33.0618 40.7652 32.0991 42.3766Z" fill="#4C466D" fill-rule="nonzero" fill-opacity="1" transform="matrix(1 0 0 1.01667 403 508)"/><path d="M29.587 31.1862C30.6397 32.134 32.2614 32.049 33.2092 30.9963 34.1569 29.9436 34.0719 28.3218 33.0192 27.3741 31.9665 26.4263 30.3448 26.5113 29.397 27.564 28.4492 28.6167 28.5343 30.2384 29.587 31.1862Z" fill="#D7F7FF" fill-rule="nonzero" fill-opacity="1" transform="matrix(1 0 0 1.01667 403 508)"/><path d="M31.3043 26.7169C31.9192 26.7169 32.5341 26.9353 33.0196 27.3803 34.0714 28.327 34.1604 29.9532 33.2138 31.0051 32.704 31.5714 32.0082 31.8546 31.3043 31.8546 30.6894 31.8546 30.0745 31.6361 29.589 31.1912 28.5372 30.2445 28.4482 28.6182 29.3948 27.5664 29.9046 27.0001 30.6004 26.7169 31.3043 26.7169M31.3043 24.8398C30.0502 24.8398 28.8446 25.3738 28.0032 26.3123 27.2103 27.1942 26.8058 28.3351 26.8705 29.5163 26.9352 30.6976 27.453 31.7899 28.3349 32.5828 29.1521 33.319 30.2039 33.7236 31.3043 33.7236 32.5584 33.7236 33.7639 33.1896 34.6054 32.2511 35.3982 31.3691 35.8028 30.2283 35.7381 29.047 35.6733 27.8658 35.1555 26.7735 34.2737 25.9806 33.4564 25.2444 32.4046 24.8398 31.3043 24.8398Z" fill="#4C466D" fill-rule="nonzero" fill-opacity="1" transform="matrix(1 0 0 1.01667 403 508)"/><path d="M33.861 29.3221C33.7558 29.5244 33.6425 29.7267 33.4807 29.9047 32.5341 30.9565 30.9079 31.0455 29.856 30.0988 29.2816 29.5811 29.0065 28.869 29.0146 28.1571 28.5129 29.1603 28.7152 30.4144 29.589 31.1992 30.6408 32.1458 32.2671 32.065 33.2138 31.0051 33.6425 30.5196 33.8529 29.9208 33.861 29.3221Z" fill="#C1E6EA" fill-rule="nonzero" fill-opacity="1" transform="matrix(1 0 0 1.01667 403 508)"/><path d="M12.8976 40.973C12.9461 42.1057 11.603 47.5104 9.45088 47.5994 11.6111 47.5104 13.375 52.4296 13.4396 53.9184 13.375 52.4296 14.896 47.3729 16.8864 47.292 14.896 47.3648 12.9542 42.2918 12.8976 40.973Z" fill="#FFFFFF" fill-rule="nonzero" fill-opacity="1" transform="matrix(1 0 0 1.01667 403 508)"/><path d="M13.4396 54.8488C12.938 54.8488 12.5254 54.4523 12.5011 53.9507 12.4768 53.4005 12.0804 51.928 11.3927 50.593 10.5998 49.0477 9.85541 48.5137 9.48322 48.5379 8.95734 48.5541 8.5285 48.1577 8.50424 47.6399L8.50424 47.5994C8.50424 47.0978 8.90068 46.6852 9.4023 46.6608 10.5917 46.6123 11.9995 42.1704 11.951 41.0135 11.9266 40.4956 12.3312 40.0587 12.849 40.0344 13.3506 40.0182 13.8038 40.4147 13.828 40.9325 13.8442 41.4018 14.273 42.842 14.9931 44.2255 15.8103 45.7951 16.5384 46.3534 16.8379 46.3534L16.8459 46.3534C17.3556 46.3291 17.8007 46.7337 17.8249 47.2515L17.8249 47.292C17.8249 47.7936 17.4285 48.2062 16.9268 48.2305 15.8669 48.2709 14.3135 52.3892 14.3782 53.8779L14.3782 53.9184C14.3782 54.42 13.9818 54.8326 13.4801 54.8569 13.4639 54.8488 13.4477 54.8488 13.4396 54.8488ZM11.4331 47.4861C12.0156 48.0039 12.5578 48.7564 13.0594 49.7354 13.1403 49.8972 13.2293 50.0671 13.3102 50.2451 13.7147 49.169 14.2569 48.1091 14.9446 47.3648 14.3863 46.8388 13.8523 46.0864 13.3345 45.0912 13.2374 44.9051 13.1484 44.719 13.0513 44.5249 12.6629 45.609 12.129 46.7094 11.4331 47.4861Z" fill="#4C466D" fill-rule="nonzero" fill-opacity="1" transform="matrix(1 0 0 1.01667 403 508)"/><path d="M25.0581 7.4768C25.0501 8.294 23.8931 12.1453 22.3396 12.1372 23.9012 12.1453 25.0015 15.7618 24.9934 16.8298 25.0015 15.7538 26.2718 12.1614 27.712 12.1695 26.2718 12.1695 25.0501 8.43961 25.0581 7.4768Z" fill="#FFFFFF" fill-rule="nonzero" fill-opacity="1" transform="matrix(1 0 0 1.01667 403 508)"/><path d="M24.9934 17.7684C24.9934 17.7684 24.9853 17.7684 24.9934 17.7684 24.4675 17.7684 24.0549 17.3477 24.0549 16.8298L24.0549 16.8217C24.063 15.7052 22.9464 13.0757 22.3315 13.0676 21.8137 13.0676 21.4011 12.6469 21.4011 12.129L21.4011 12.1209C21.4011 11.6031 21.8218 11.1905 22.3396 11.1905L22.3477 11.1905C22.9545 11.1905 24.1115 8.36678 24.1277 7.46063 24.1277 6.94283 24.5484 6.53016 25.0662 6.53016L25.0743 6.53016C25.5921 6.53016 26.0048 6.959 26.0048 7.4768 25.9967 8.32635 27.1051 11.0691 27.7362 11.231 27.7605 11.231 27.7847 11.231 27.8091 11.239 28.2945 11.2795 28.6666 11.6841 28.6586 12.1776 28.6586 12.6954 28.2379 13.1081 27.7038 13.1081 27.1051 13.2132 25.932 15.8428 25.9239 16.8379 25.9239 17.3558 25.5112 17.7684 24.9934 17.7684ZM24.1358 12.1372C24.4918 12.5417 24.7911 13.0352 25.0339 13.553 25.3252 12.9786 25.6245 12.5093 25.9481 12.1453 25.6326 11.7731 25.3332 11.2876 25.0501 10.697 24.7992 11.231 24.4999 11.7326 24.1358 12.1372Z" fill="#4C466D" fill-rule="nonzero" fill-opacity="1" transform="matrix(1 0 0 1.01667 403 508)"/><path d="M12.1127 51.9928C8.12397 51.9928 4.9928 51.4021 3.16426 50.2046 2.03154 49.4603 1.37618 48.4975 1.23054 47.3486 0.688459 43.1979 3.41508 40.0992 10.9396 36.2884 11.4008 36.0537 11.9671 36.2398 12.2017 36.701 12.4364 37.1622 12.2503 37.7286 11.7891 37.9632 4.08662 41.8549 2.74354 44.4359 3.09145 47.1059 3.17235 47.6965 3.52835 48.1981 4.1918 48.635 8.02688 51.1513 19.7829 50.3827 32.1538 46.8065 48.2466 42.1624 57.3245 35.2689 56.8067 31.2963 56.4831 28.8286 52.4053 27.6312 45.6008 27.9952 45.0911 28.0276 44.6462 27.6312 44.6138 27.1133 44.5895 26.5955 44.9779 26.1505 45.4956 26.1262 55.7711 25.568 58.3278 28.4969 58.6594 31.0536 59.4041 36.7576 48.7078 43.9747 32.6636 48.6108 24.9449 50.8438 17.6873 51.9928 12.1127 51.9928Z" fill="#4C466D" fill-rule="nonzero" fill-opacity="1" transform="matrix(1 0 0 1.01667 403 508)"/><path d="M5.54297 24.6537C5.53489 25.5922 4.21607 29.9856 2.43609 29.9775 4.21607 29.9937 5.47825 34.1119 5.47016 35.3418 5.47825 34.1119 6.93463 30.0098 8.57707 30.0179 6.93463 30.0098 5.53489 25.746 5.54297 24.6537Z" fill="#FFFFFF" fill-rule="nonzero" fill-opacity="1" transform="matrix(1 0 0 1.01667 403 508)"/><path d="M5.47016 36.2803C5.47016 36.2803 5.46207 36.2803 5.47016 36.2803 4.95234 36.2803 4.53162 35.8596 4.53162 35.3418L4.53162 35.3337C4.53162 34.8967 4.27271 33.6993 3.77108 32.5908 3.17235 31.272 2.63027 30.9161 2.428 30.9161 1.91018 30.9161 1.49754 30.4953 1.49754 29.9775L1.49754 29.9694C1.49754 29.4516 1.91827 29.0389 2.43609 29.0389L2.44417 29.0389C3.25326 29.0389 4.60444 25.6489 4.60444 24.6456 4.60444 24.1278 5.02516 23.7152 5.54297 23.7152L5.55107 23.7152C6.06891 23.7152 6.48152 24.144 6.48152 24.6618 6.48152 24.9854 6.74854 26.1667 7.29059 27.348 7.94596 28.7719 8.47998 29.0794 8.58516 29.0794 9.10295 29.0794 9.51557 29.5001 9.51557 30.0179L9.51557 30.026C9.51557 30.5439 9.09486 30.9565 8.57707 30.9565L8.56898 30.9565C7.85695 30.9565 6.41678 34.1038 6.40869 35.3498 6.40061 35.8676 5.98799 36.2803 5.47016 36.2803ZM4.30508 29.9694C4.70153 30.3901 5.09798 30.9807 5.47825 31.8222 5.48634 31.8465 5.50252 31.8708 5.51061 31.895 5.84234 31.1912 6.255 30.5115 6.74045 30.0018 6.32777 29.5406 5.9475 28.9257 5.58343 28.1409 5.56725 28.1004 5.54297 28.06 5.5268 28.0195 5.21125 28.7396 4.79862 29.4354 4.30508 29.9694Z" fill="#4C466D" fill-rule="nonzero" fill-opacity="1" transform="matrix(1 0 0 1.01667 403 508)"/><path d="M51.6447 28.2622C51.6447 29.9111 52.9813 31.2478 54.6302 31.2478 56.2791 31.2478 57.6158 29.9112 57.6158 28.2623 57.6158 28.2623 57.6158 28.2623 57.6158 28.2622 57.6158 26.6134 56.2792 25.2767 54.6303 25.2766 52.9814 25.2766 51.6448 26.6133 51.6447 28.2622 51.6447 28.2622 51.6447 28.2622 51.6447 28.2622Z" fill="#F7554A" fill-rule="nonzero" fill-opacity="1" transform="matrix(1 0 0 1.01667 403 508)"/><path d="M54.6302 25.2767C56.2808 25.2767 57.6158 26.6117 57.6158 28.2622 57.6158 29.9128 56.2808 31.2478 54.6302 31.2478 52.9797 31.2478 51.6447 29.9128 51.6447 28.2622 51.6366 26.6117 52.9797 25.2767 54.6302 25.2767M54.6302 23.3996C51.9521 23.3996 49.7677 25.5841 49.7677 28.2622 49.7677 30.9403 51.9521 33.1249 54.6302 33.1249 57.3083 33.1249 59.4926 30.9403 59.4926 28.2622 59.4926 25.5841 57.3083 23.3996 54.6302 23.3996Z" fill="#4C466D" fill-rule="nonzero" fill-opacity="1" transform="matrix(1 0 0 1.01667 403 508)"/></g></g></g></g></svg>