<svg width="61" height="64" xmlns="http://www.w3.org/2000/svg" xmlns:xlink="http://www.w3.org/1999/xlink" xml:space="preserve" overflow="hidden"><defs><clipPath id="clip0"><rect x="405" y="116" width="61" height="64"/></clipPath><clipPath id="clip1"><rect x="406" y="117" width="60" height="62"/></clipPath><clipPath id="clip2"><rect x="406" y="117" width="60" height="62"/></clipPath><clipPath id="clip3"><rect x="406" y="117" width="60" height="62"/></clipPath></defs><g clip-path="url(#clip0)" transform="translate(-405 -116)"><g clip-path="url(#clip1)"><g clip-path="url(#clip2)"><g clip-path="url(#clip3)"><path d="M6.16125 29.9963C6.16125 43.4582 17.0743 54.3713 30.5362 54.3713 43.9982 54.3713 54.9112 43.4582 54.9112 29.9963 54.9112 16.5343 43.9982 5.62125 30.5362 5.62125 17.0743 5.62125 6.16125 16.5343 6.16125 29.9963Z" fill="#AEECFF" fill-rule="nonzero" fill-opacity="1" transform="matrix(1 0 0 1.03333 406 117)"/><path d="M42.9712 12.015 40.3575 9.42375 6.55875 25.4625C6.55875 25.4625 5.3025 30.1613 6.72 35.8575 16.5037 29.5312 36.225 16.4813 42.9712 12.015ZM38.295 18.0712 21.8738 32.655 27.345 36.0187 40.9388 19.9988ZM42.885 20.6175 36.0675 37.1925 42.1613 37.1925 45.4425 21.5588ZM47.97 19.4025 47.97 38.4375 53.8687 37.0537 50.295 19.3762Z" fill="#E3FAFF" fill-rule="nonzero" fill-opacity="1" transform="matrix(1 0 0 1.03333 406 117)"/><path d="M36.855 14.1337C36.855 18.833 40.6645 22.6425 45.3638 22.6425 50.063 22.6425 53.8725 18.833 53.8725 14.1337 53.8725 9.43447 50.063 5.625 45.3638 5.625 40.6645 5.625 36.855 9.43447 36.855 14.1337Z" fill="#FFFF5F" fill-rule="nonzero" fill-opacity="1" transform="matrix(1 0 0 1.03333 406 117)"/><path d="M30.5325 54.375C36.87 54.375 42.6262 51.9375 46.9575 47.97 46.662 46.9191 46.1046 45.9605 45.3375 45.1838L26.2388 26.0812C23.6673 23.5246 19.5139 23.5246 16.9425 26.0812L6.9525 36.0675C9.65625 46.59 19.1737 54.375 30.5325 54.375Z" fill="#66BF47" fill-rule="nonzero" fill-opacity="1" transform="matrix(1 0 0 1.03333 406 117)"/><path d="M18.5588 51.2137C22.2088 53.287 26.3348 54.3763 30.5325 54.375 41.4558 54.3706 51.0411 47.0966 53.985 36.5775L48.03 30.6262C45.4586 28.0696 41.3052 28.0696 38.7338 30.6262L19.635 49.7287C19.1888 50.175 18.8475 50.685 18.5588 51.2137Z" fill="#3FB018" fill-rule="nonzero" fill-opacity="1" transform="matrix(1 0 0 1.03333 406 117)"/><path d="M30.5325 54.375C34.3276 54.3732 38.0692 53.4805 41.4563 51.7688L28.4925 38.8088C25.5595 35.8912 20.8205 35.8912 17.8875 38.8088L11.4975 45.1988C16.1115 50.9998 23.1203 54.3785 30.5325 54.375Z" fill="#5AA93E" fill-rule="nonzero" fill-opacity="1" transform="matrix(1 0 0 1.03333 406 117)"/></g></g></g></g></svg>