<svg width="64" height="62" xmlns="http://www.w3.org/2000/svg" xmlns:xlink="http://www.w3.org/1999/xlink" xml:space="preserve" overflow="hidden"><defs><clipPath id="clip0"><rect x="793" y="238" width="64" height="62"/></clipPath><clipPath id="clip1"><rect x="794" y="239" width="63" height="61"/></clipPath><clipPath id="clip2"><rect x="794" y="239" width="63" height="61"/></clipPath><clipPath id="clip3"><rect x="794" y="239" width="63" height="61"/></clipPath></defs><g clip-path="url(#clip0)" transform="translate(-793 -238)"><g clip-path="url(#clip1)"><g clip-path="url(#clip2)"><g clip-path="url(#clip3)"><path d="M44.5464 21.8154C42.2019 19.9134 39.9866 18.1165 38.334 15.8122 32.6063 7.81622 31.6498 1.06665 31.6409 0.999328 31.5648 0.427384 31.077 0.000145366 30.5 1.70596e-08L30.4977 0C29.9206 0.000547375 29.4334 0.429021 29.3591 1.00134 29.3502 1.06752 28.4217 7.77792 22.6657 15.8122 21.0135 18.1165 18.7981 19.9137 16.4533 21.8154 11.7991 25.59 6.98724 29.4923 6.98724 37.4872 6.98724 50.4525 17.5346 61 30.5 61 43.4651 61 54.0128 50.4525 54.0128 37.4872 54.0128 29.4923 49.2009 25.59 44.5464 21.8154ZM22.0835 26.0463C23.7223 24.7176 25.4162 23.3442 26.701 21.5501 28.5868 18.9179 29.7683 16.4789 30.5 14.5658 31.2317 16.4789 32.4129 18.9179 34.299 21.5501 35.5838 23.3442 37.2777 24.7187 38.9165 26.0475 42.0174 28.5618 44.6948 30.7331 44.6948 35.2955 44.6948 43.123 38.3274 49.4904 30.5 49.4904 22.6726 49.4904 16.3052 43.123 16.3052 35.2955 16.3052 30.7331 18.9826 28.5618 22.0835 26.0463ZM30.5 58.1226C19.3938 58.1226 10.3581 49.087 10.3581 37.9807 10.3581 37.0277 11.1312 36.2543 12.0846 36.2543 13.0376 36.2543 13.811 37.0277 13.811 37.9807 13.811 47.1827 21.2981 54.6697 30.5 54.6697 39.7019 54.6697 47.189 47.1827 47.189 37.9807 47.189 37.0277 47.9621 36.2543 48.9154 36.2543 49.8685 36.2543 50.6419 37.0277 50.6419 37.9807 50.6419 49.087 41.6059 58.1226 30.5 58.1226Z" fill="#A9C7D8" fill-rule="nonzero" fill-opacity="1" transform="matrix(1.03279 0 0 1 794 239)"/><path d="M48.9154 36.2543C47.9621 36.2543 47.189 37.0277 47.189 37.9807 47.189 47.1827 39.7019 54.6697 30.5 54.6697 21.2981 54.6697 13.811 47.1827 13.811 37.9807 13.811 37.0277 13.0376 36.2543 12.0846 36.2543 11.1312 36.2543 10.3581 37.0277 10.3581 37.9807 10.3581 49.087 19.3938 58.1226 30.5 58.1226 41.6059 58.1226 50.6419 49.087 50.6419 37.9807 50.6419 37.0277 49.8685 36.2543 48.9154 36.2543Z" fill="#4A8F9E" fill-rule="nonzero" fill-opacity="1" transform="matrix(1.03279 0 0 1 794 239)"/><path d="M30.5 41.7213C35.3657 41.7213 39.3244 37.7626 39.3244 32.8969 39.3244 29.7936 37.4495 28.274 35.7962 26.932 35.0319 26.3125 34.3103 25.7269 33.8021 25.0199 31.9635 22.4516 31.6432 20.2958 31.6409 20.28 31.5663 19.7095 31.0809 19.2823 30.5055 19.2809L30.4997 19.2809C29.9251 19.282 29.4389 19.7056 29.3591 20.2745 29.3568 20.2958 29.0365 22.4516 27.1976 25.0188 26.6897 25.7269 25.9681 26.3125 25.2035 26.932 23.5502 28.274 21.6756 29.7936 21.6756 32.8969 21.6756 37.7626 25.6343 41.7213 30.5 41.7213Z" fill="#FE8657" fill-rule="nonzero" fill-opacity="1" transform="matrix(1.03279 0 0 1 794 239)"/></g></g></g></g></svg>