<svg width="68" height="80" xmlns="http://www.w3.org/2000/svg" xmlns:xlink="http://www.w3.org/1999/xlink" xml:space="preserve" overflow="hidden"><defs><clipPath id="clip0"><rect x="309" y="368" width="68" height="80"/></clipPath><clipPath id="clip1"><rect x="310" y="369" width="67" height="79"/></clipPath><clipPath id="clip2"><rect x="310" y="369" width="67" height="79"/></clipPath><clipPath id="clip3"><rect x="310" y="369" width="67" height="79"/></clipPath></defs><g clip-path="url(#clip0)" transform="translate(-309 -368)"><g clip-path="url(#clip1)"><g clip-path="url(#clip2)"><g clip-path="url(#clip3)"><path d="M33.5 31.49 53.6 31.49 53.6 50.25 48.24 50.25 48.24 43.55 38.86 43.55 38.86 50.25 33.5 50.25Z" fill="#CBE5FF" fill-rule="nonzero" fill-opacity="1" transform="matrix(1 0 0 1.1791 310 369)"/><path d="M36.85 36.18 50.25 36.18 50.25 38.86 36.85 38.86Z" fill="#A7C5F2" fill-rule="nonzero" fill-opacity="1" transform="matrix(1 0 0 1.1791 310 369)"/><path d="M13.4 16.75 33.5 16.75 33.5 50.25 13.4 50.25Z" fill="#CBE5FF" fill-rule="nonzero" fill-opacity="1" transform="matrix(1 0 0 1.1791 310 369)"/><path d="M16.08 37.52 30.82 37.52 30.82 40.2 16.08 40.2 16.08 37.52ZM16.08 43.55 30.82 43.55 30.82 46.23 16.08 46.23 16.08 43.55Z" fill="#A7C5F2" fill-rule="nonzero" fill-opacity="1" transform="matrix(1 0 0 1.1791 310 369)"/><path d="M38.86 43.55 48.24 43.55 48.24 50.25 38.86 50.25Z" fill="#7B8BAF" fill-rule="nonzero" fill-opacity="1" transform="matrix(1 0 0 1.1791 310 369)"/><path d="M38.86 43.55 38.86 44.89 46.9 44.89 46.9 50.25 48.24 50.25 48.24 43.55Z" fill="#000064" fill-rule="nonzero" fill-opacity="0.15" transform="matrix(1 0 0 1.1791 310 369)"/><path d="M16.08 31.49 30.82 31.49 30.82 34.17 16.08 34.17Z" fill="#A7C5F2" fill-rule="nonzero" fill-opacity="1" transform="matrix(1 0 0 1.1791 310 369)"/><path d="M36.85 36.18 36.85 37.52 48.91 37.52 48.91 38.86 50.25 38.86 50.25 36.18 36.85 36.18ZM16.08 43.55 16.08 44.89 29.48 44.89 29.48 46.23 30.82 46.23 30.82 43.55 16.08 43.55Z" fill="#000064" fill-rule="nonzero" fill-opacity="0.15" transform="matrix(1 0 0 1.1791 310 369)"/><path d="M24.79 20.1 24.79 22.78 22.11 22.78 22.11 20.1 19.43 20.1 19.43 28.14 22.11 28.14 22.11 25.46 24.79 25.46 24.79 28.14 27.47 28.14 27.47 20.1Z" fill="#F26161" fill-rule="nonzero" fill-opacity="1" transform="matrix(1 0 0 1.1791 310 369)"/><path d="M44.22 43.55C44.22 43.18 43.92 42.88 43.55 42.88 43.18 42.88 42.88 43.18 42.88 43.55L42.88 50.25 44.22 50.25 44.22 43.55Z" fill="#CBE5FF" fill-rule="nonzero" fill-opacity="1" transform="matrix(1 0 0 1.1791 310 369)"/><path d="M33.5 31.49 36.18 31.49 36.18 50.25 33.5 50.25 33.5 31.49ZM30.82 34.17 30.82 31.49 24.12 31.49 27.47 28.14 24.79 28.14 24.79 25.46 22.11 25.46 22.11 28.14 19.43 28.14 19.43 20.1717 13.4 26.2017 13.4 42.21 16.75 38.86 29.48 38.86 29.48 40.2 30.82 40.2 30.82 37.52 18.09 37.52 22.78 32.83 29.48 32.83 29.48 34.17 30.82 34.17Z" fill="#000064" fill-rule="nonzero" fill-opacity="0.15" transform="matrix(1 0 0 1.1791 310 369)"/></g></g></g></g></svg>