<svg width="60" height="52" xmlns="http://www.w3.org/2000/svg" xmlns:xlink="http://www.w3.org/1999/xlink" xml:space="preserve" overflow="hidden"><defs><clipPath id="clip0"><rect x="552" y="80" width="60" height="52"/></clipPath><clipPath id="clip1"><rect x="553" y="81" width="59" height="50"/></clipPath><clipPath id="clip2"><rect x="553" y="81" width="59" height="50"/></clipPath><clipPath id="clip3"><rect x="553" y="81" width="59" height="50"/></clipPath></defs><g clip-path="url(#clip0)" transform="translate(-552 -80)"><g clip-path="url(#clip1)"><g clip-path="url(#clip2)"><g clip-path="url(#clip3)"><path d="M24.7646 46.1394 14.1243 46.1394C9.98115 46.1394 6.59136 42.7495 6.59136 38.6064L6.59136 12.2411C6.59136 8.09795 9.98115 4.7081 14.1243 4.7081L36.7231 4.7081C40.8663 4.7081 44.2561 8.09795 44.2561 12.2411L44.2561 33.145C44.2561 34.1808 43.4086 35.0283 42.3729 35.0283 41.3371 35.0283 40.4897 34.1808 40.4897 33.145L40.4897 12.2411C40.4897 10.1695 38.7947 8.47456 36.7231 8.47456L14.1243 8.47456C12.0527 8.47456 10.3578 10.1695 10.3578 12.2411L10.3578 38.6064C10.3578 40.678 12.0527 42.3729 14.1243 42.3729L24.7646 42.3729C25.8004 42.3729 26.6479 43.2204 26.6479 44.2561 26.6479 45.2919 25.8004 46.1394 24.7646 46.1394Z" fill="#388CEB" fill-rule="nonzero" fill-opacity="1" transform="matrix(1.16256 0 0 1 553.01 81)"/><path d="M34.8399 16.9492 16.0075 16.9492C14.9717 16.9492 14.1243 16.1017 14.1243 15.0659 14.1243 14.0301 14.9717 13.1827 16.0075 13.1827L34.8399 13.1827C35.8757 13.1827 36.7231 14.0301 36.7231 15.0659 36.7231 16.1017 35.8757 16.9492 34.8399 16.9492ZM34.8399 24.4821 16.0075 24.4821C14.9717 24.4821 14.1243 23.6347 14.1243 22.5989 14.1243 21.5631 14.9717 20.7156 16.0075 20.7156L34.8399 20.7156C35.8757 20.7156 36.7231 21.5631 36.7231 22.5989 36.7231 23.6347 35.8757 24.4821 34.8399 24.4821Z" fill="#E78E00" fill-rule="nonzero" fill-opacity="1" transform="matrix(1.16256 0 0 1 553.01 81)"/><path d="M33.71 45.1978 32.9567 45.1978C29.8494 45.1978 27.307 42.6554 27.307 39.548L27.307 33.8983C27.307 30.791 29.8494 28.2486 32.9567 28.2486L38.6064 28.2486C41.7138 28.2486 44.2561 30.791 44.2561 33.8983L44.2561 34.6516 33.71 45.1978ZM32.9567 32.0151C31.9209 32.0151 31.0734 32.8625 31.0734 33.8983L31.0734 39.548C31.0734 40.3955 31.5442 41.0546 32.2976 41.3371L40.3955 33.2392C40.113 32.4859 39.4539 32.0151 38.6064 32.0151L32.9567 32.0151Z" fill="#388CEB" fill-rule="nonzero" fill-opacity="1" transform="matrix(1.16256 0 0 1 553.01 81)"/></g></g></g></g></svg>