<svg width="60" height="54" xmlns="http://www.w3.org/2000/svg" xmlns:xlink="http://www.w3.org/1999/xlink" xml:space="preserve" overflow="hidden"><defs><clipPath id="clip0"><rect x="792" y="394" width="60" height="54"/></clipPath><clipPath id="clip1"><rect x="792" y="395" width="60" height="52"/></clipPath><clipPath id="clip2"><rect x="792" y="395" width="60" height="52"/></clipPath><clipPath id="clip3"><rect x="792" y="395" width="60" height="52"/></clipPath></defs><g clip-path="url(#clip0)" transform="translate(-792 -394)"><g clip-path="url(#clip1)"><g clip-path="url(#clip2)"><g clip-path="url(#clip3)"><path d="M3.25 48.75 52 48.75 51.7304 3.25 3.25 3.25 3.25 48.75ZM35.75 6.5 39 6.5 39 9.75 35.75 9.75 35.75 6.5ZM45.5 13 45.5 39 9.75 39 9.75 13 45.5 13ZM26 6.5 29.25 6.5 29.25 9.75 26 9.75 26 6.5ZM16.25 6.5 19.5 6.5 19.5 9.75 16.25 9.75 16.25 6.5ZM6.5 6.5 9.75 6.5 9.75 9.75 6.5 9.75 6.5 6.5ZM9.68175 45.5 6.43175 45.5 6.43175 42.25 9.68175 42.25 9.68175 45.5ZM19.5 45.5 16.25 45.5 16.25 42.25 19.5 42.25 19.5 45.5ZM29.25 45.5 26 45.5 26 42.25 29.25 42.25 29.25 45.5ZM39 45.5 35.75 45.5 35.75 42.25 39 42.25 39 45.5ZM48.75 45.5 45.5 45.5 45.5 42.25 48.75 42.25 48.75 45.5ZM48.75 9.75 45.5 9.75 45.5 6.5 48.75 6.5 48.75 9.75Z" fill="#38C9F1" fill-rule="nonzero" fill-opacity="1" transform="matrix(1.08342 0 0 1 792.07 395)"/><path d="M22.7597 32.0612 22.75 19.5 35.5843 26.0488 22.7597 32.0612Z" fill="#38C9F1" fill-rule="nonzero" fill-opacity="1" transform="matrix(1.08342 0 0 1 792.07 395)"/></g></g></g></g></svg>